<svg width="96.000000" height="96.000000" viewBox="0 0 96 96" fill="none" xmlns="http://www.w3.org/2000/svg" xmlns:xlink="http://www.w3.org/1999/xlink">
	<desc>
			Created with Pixso.
	</desc>
	<defs>
		<filter id="filter_2_235_dd" x="3.000000" y="2.000000" width="90.000000" height="91.145706" filterUnits="userSpaceOnUse" color-interpolation-filters="sRGB">
			<feFlood flood-opacity="0" result="BackgroundImageFix"/>
			<feBlend mode="normal" in="SourceGraphic" in2="BackgroundImageFix" result="shape"/>
			<feColorMatrix in="SourceAlpha" type="matrix" values="0 0 0 0 0 0 0 0 0 0 0 0 0 0 0 0 0 0 127 0" result="hardAlpha"/>
			<feOffset dx="3" dy="5"/>
			<feGaussianBlur stdDeviation="10.3333"/>
			<feComposite in2="hardAlpha" operator="arithmetic" k2="-1" k3="1"/>
			<feColorMatrix type="matrix" values="0 0 0 0 1 0 0 0 0 1 0 0 0 0 1 0 0 0 0.3 0"/>
			<feBlend mode="normal" in2="shape" result="effect_innerShadow_1"/>
		</filter>
		<filter id="filter_2_85_dd" x="25.201874" y="17.402954" width="46.168091" height="51.981567" filterUnits="userSpaceOnUse" color-interpolation-filters="sRGB">
			<feFlood flood-opacity="0" result="BackgroundImageFix"/>
			<feBlend mode="normal" in="SourceGraphic" in2="BackgroundImageFix" result="shape"/>
			<feColorMatrix in="SourceAlpha" type="matrix" values="0 0 0 0 0 0 0 0 0 0 0 0 0 0 0 0 0 0 127 0" result="hardAlpha"/>
			<feOffset dx="-3" dy="0"/>
			<feGaussianBlur stdDeviation="1.33333"/>
			<feComposite in2="hardAlpha" operator="arithmetic" k2="-1" k3="1"/>
			<feColorMatrix type="matrix" values="0 0 0 0 0 0 0 0 0 0 0 0 0 0 0 0 0 0 0.12 0"/>
			<feBlend mode="normal" in2="shape" result="effect_innerShadow_1"/>
		</filter>
		<clipPath id="clip2_199">
			<rect id="ICON" width="96.000000" height="96.000000" fill="white" fill-opacity="0"/>
		</clipPath>
	</defs>
	<rect id="ICON" width="96.000000" height="96.000000" fill="#FFFFFF" fill-opacity="1.000000"/>
	<g clip-path="url(#clip2_199)">
		<g filter="url(#filter_2_235_dd)">
			<rect id="矩形 3" x="3.000000" y="2.000000" rx="13.000000" width="90.000000" height="90.000000" fill="#002FC1" fill-opacity="1.000000"/>
			<path id="多边形 4" d="M64.94 62.95L71.53 69.54L73.81 60.67L64.94 62.95Z" fill="#AFAFAF" fill-opacity="1.000000" fill-rule="evenodd"/>
			<path id="多边形 4" d="M58.7 56.71L65.29 63.3L67.57 54.43L58.7 56.71Z" fill="#AFAFAF" fill-opacity="1.000000" fill-rule="evenodd"/>
			<path id="多边形 4" d="M71.18 69.19L77.77 75.78L80.05 66.91L71.18 69.19Z" fill="#AFAFAF" fill-opacity="1.000000" fill-rule="evenodd"/>
			<rect id="矩形 1" x="28.655884" y="36.733658" rx="2.000000" width="7.693964" height="62.786339" transform="rotate(-45 28.655884 36.733658)" fill="#D7D6D6" fill-opacity="1.000000"/>
			<path id="多边形 3" d="M79.8 82.44L77.8 75.09L72.46 80.43L79.8 82.44Z" fill="#D7D6D6" fill-opacity="1.000000" fill-rule="evenodd"/>
			<path id="直线 31" d="M46.23 49.23L70.45 73.45" stroke="#B7B7B7" stroke-opacity="1.000000" stroke-width="3.000000" stroke-linecap="round"/>
			<rect id="矩形 2" x="6.000000" y="30.036415" rx="8.000000" width="29.749996" height="21.793602" transform="rotate(-45 6.000000 30.036415)" stroke="#B8AE82" stroke-opacity="1.000000" stroke-width="7.000000"/>
			<path id="多边形 4" d="M31.2 62.95L24.61 69.54L22.33 60.67L31.2 62.95Z" fill="#AFAFAF" fill-opacity="1.000000" fill-rule="evenodd"/>
			<path id="多边形 4" d="M37.43 56.71L30.84 63.3L28.56 54.43L37.43 56.71Z" fill="#AFAFAF" fill-opacity="1.000000" fill-rule="evenodd"/>
			<path id="多边形 4" d="M24.96 69.19L18.37 75.78L16.09 66.91L24.96 69.19Z" fill="#AFAFAF" fill-opacity="1.000000" fill-rule="evenodd"/>
			<rect id="矩形 1" rx="2.000000" width="7.693964" height="62.786339" transform="matrix(-0.707107 -0.707107 -0.707107 0.707107 67.4898 36.7337)" fill="#D7D6D6" fill-opacity="1.000000"/>
			<path id="多边形 3" d="M16.33 82.44L18.34 75.09L23.68 80.43L16.33 82.44Z" fill="#D7D6D6" fill-opacity="1.000000" fill-rule="evenodd"/>
			<path id="直线 31" d="M49.9 49.23L25.69 73.45" stroke="#B7B7B7" stroke-opacity="1.000000" stroke-width="3.000000" stroke-linecap="round"/>
			<rect id="矩形 2" rx="8.000000" width="29.749996" height="21.793602" transform="matrix(-0.707107 -0.707107 -0.707107 0.707107 90.1457 30.0364)" stroke="#B8AE82" stroke-opacity="1.000000" stroke-width="7.000000"/>
			<path id="矢量 1" d="M48.28 9.07C38.07 16.64 32.09 20.46 21.16 26.57C21.97 55.51 30.17 65.24 48.28 79.51C67.64 63.76 75.99 53.18 75.41 26.57C64.34 20.29 58.45 16.35 48.28 9.07Z" fill="#828485" fill-opacity="1.000000" fill-rule="evenodd"/>
			<g filter="url(#filter_2_85_dd)">
				<path id="矢量 2" d="M48.28 22.63L53.09 22.63L54.84 17.82L65.34 26.57L64.03 30.94L67.97 33.13L71.03 30.94L67.97 51.51L62.72 50.19L59.66 56.76L62.72 60.26L53.09 69.01L50.91 65.94L48.28 65.94L45.66 65.94L43.47 69.01L33.84 60.26L36.91 56.76L33.84 50.19L28.59 51.51L25.53 30.94L28.59 33.13L32.53 30.94L31.22 26.57L41.72 17.82L43.47 22.63L48.28 22.63Z" fill="#C4C4C4" fill-opacity="1.000000" fill-rule="evenodd"/>
			</g>
			<path id="矢量 2" d="M53.09 22.63L54.84 17.82L65.34 26.57L64.03 30.94L67.97 33.13L71.03 30.94L67.97 51.51L62.72 50.19L59.66 56.76L62.72 60.26L53.09 69.01L50.91 65.94L48.28 65.94L45.66 65.94L43.47 69.01L33.84 60.26L36.91 56.76L33.84 50.19L28.59 51.51L25.53 30.94L28.59 33.13L32.53 30.94L31.22 26.57L41.72 17.82L43.47 22.63L48.28 22.63L53.09 22.63Z" stroke="#000000" stroke-opacity="0.120000" stroke-width="0.500000"/>
			<path id="多边形 2" d="M48.28 37.07L45.25 42.32L51.31 42.32L48.28 37.07Z" fill="#B6970B" fill-opacity="1.000000" fill-rule="evenodd"/>
			<circle id="椭圆 1" cx="48.285919" cy="43.197830" r="3.500000" fill="#010101" fill-opacity="1.000000"/>
			<circle id="椭圆 1" cx="48.285919" cy="43.197830" r="3.500000" fill="#010101" fill-opacity="1.000000"/>
			<circle id="椭圆 1" cx="48.285919" cy="47.572830" r="1.750000" fill="#010101" fill-opacity="1.000000"/>
			<circle id="椭圆 1" cx="48.285919" cy="47.572830" r="1.750000" fill="#010101" fill-opacity="1.000000"/>
		</g>
	</g>
</svg>
